# xmcd
#
# Track frame offsets: 
#        150
#        22580
#        34870
#        54821
#        79694
#        95638
#        121185
#        137072
#        157102
#        169903
#
# Disc length: 2636 seconds
#
# Revision: 0
# Processed by: cddbd v1.5.2PL0 Copyright (c) Steve Scherf et al.
# Submitted via: ExactAudioCopyFreeDBPlugin 1.0
#
DISCID=730a4a0a
DTITLE=Ben Rogers - The BloodRed Yonder
DYEAR=2015
DGENRE=Country
TTITLE0=Wild Roses
TTITLE1=Wanted
TTITLE2=Panhandler
TTITLE3=Goodbye Rosa Lee
TTITLE4=Sinners
TTITLE5=River
TTITLE6=Don't Buy Me Roses
TTITLE7=The More I Learn
TTITLE8=Living Without You
TTITLE9=Darling Please
EXTD=
EXTT0=
EXTT1=
EXTT2=
EXTT3=
EXTT4=
EXTT5=
EXTT6=
EXTT7=
EXTT8=
EXTT9=
PLAYORDER=
